<svg width="42" height="45" viewBox="0 0 42 45" fill="none" xmlns="http://www.w3.org/2000/svg">
<path d="M20.629 0C32.0223 0 41.2579 9.23558 41.2579 20.629C41.2579 32.0223 32.0223 41.2579 20.629 41.2579C9.23558 41.2579 0 32.0223 0 20.629C0 9.23558 9.23558 0 20.629 0ZM27.9213 13.1633L17.71 23.3747L13.3366 18.9993C13.1451 18.8076 12.9177 18.6555 12.6674 18.5518C12.4171 18.448 12.1488 18.3945 11.8778 18.3944C11.3306 18.3942 10.8057 18.6114 10.4187 18.9982C10.0316 19.385 9.814 19.9098 9.81381 20.457C9.81361 21.0042 10.0308 21.5291 10.4176 21.9162L16.1071 27.6057C16.3178 27.8165 16.568 27.9837 16.8434 28.0978C17.1188 28.2119 17.4139 28.2707 17.712 28.2707C18.0101 28.2707 18.3053 28.2119 18.5806 28.0978C18.856 27.9837 19.1062 27.8165 19.317 27.6057L30.8403 16.0823C31.2274 15.6952 31.4448 15.1703 31.4448 14.6228C31.4448 14.0754 31.2274 13.5504 30.8403 13.1633C30.4532 12.7763 29.9282 12.5588 29.3808 12.5588C28.8334 12.5588 28.3084 12.7763 27.9213 13.1633Z" fill="#35C5F0"/>
</svg>
