<svg width="128" height="128" viewBox="0 0 128 128" fill="none" xmlns="http://www.w3.org/2000/svg">
<g clip-path="url(#clip0_188_1266)">
<path d="M0 64C0 47.0261 6.74284 30.7475 18.7452 18.7452C30.7475 6.74284 47.0261 0 64 0C80.9739 0 97.2525 6.74284 109.255 18.7452C121.257 30.7475 128 47.0261 128 64C128 80.9739 121.257 97.2525 109.255 109.255C97.2525 121.257 80.9739 128 64 128C47.0261 128 30.7475 121.257 18.7452 109.255C6.74284 97.2525 0 80.9739 0 64ZM88 48C88 45.8783 87.1571 43.8434 85.6569 42.3431C84.1566 40.8429 82.1217 40 80 40C77.8783 40 75.8434 40.8429 74.3431 42.3431C72.8429 43.8434 72 45.8783 72 48C72 50.1217 72.8429 52.1566 74.3431 53.6569C75.8434 55.1571 77.8783 56 80 56C82.1217 56 84.1566 55.1571 85.6569 53.6569C87.1571 52.1566 88 50.1217 88 48ZM50.064 70.784C48.6775 69.2198 46.7338 68.2603 44.6488 68.111C42.5639 67.9617 40.5033 68.6343 38.908 69.985C37.3127 71.3357 36.3094 73.2571 36.1128 75.3381C35.9162 77.4191 36.5419 79.4945 37.856 81.12L37.864 81.136L37.872 81.144L37.896 81.176L37.952 81.24L38.096 81.4L38.52 81.864C40.4224 83.7936 42.5622 85.4737 44.888 86.864C50.6702 90.289 57.2799 92.0652 64 92C70.7236 92.0643 77.3363 90.2852 83.12 86.856C85.4425 85.4676 87.5796 83.7902 89.48 81.864L89.904 81.408L90.048 81.24L90.104 81.176L90.128 81.144L90.144 81.128C91.5157 79.5091 92.1881 77.4116 92.0133 75.297C91.8386 73.1823 90.8309 71.2237 89.212 69.852C87.5931 68.4803 85.4956 67.8079 83.381 67.9827C81.2663 68.1574 79.3077 69.1651 77.936 70.784L77.896 70.824C77.8213 70.9093 77.656 71.0693 77.4 71.304C76.6245 71.9975 75.7832 72.6138 74.888 73.144C71.5901 75.0786 67.8228 76.0668 64 76C60.1799 76.0653 56.4155 75.0772 53.12 73.144C52.026 72.4934 51.0135 71.7145 50.104 70.824L50.064 70.784ZM56 48C56 45.8783 55.1571 43.8434 53.6569 42.3431C52.1566 40.8429 50.1217 40 48 40C45.8783 40 43.8434 40.8429 42.3431 42.3431C40.8429 43.8434 40 45.8783 40 48C40 50.1217 40.8429 52.1566 42.3431 53.6569C43.8434 55.1571 45.8783 56 48 56C50.1217 56 52.1566 55.1571 53.6569 53.6569C55.1571 52.1566 56 50.1217 56 48Z" fill="#C2C8CB"/>
<circle cx="105" cy="111" r="16.5" fill="white" stroke="#C2C8CB"/>
<path opacity="0.5" d="M102.167 121.59H106.833C110.11 121.59 111.749 121.59 112.926 120.749C113.434 120.386 113.872 119.918 114.214 119.372C115 118.113 115 116.36 115 112.855C115 109.35 115 107.597 114.214 106.338C113.872 105.792 113.434 105.324 112.926 104.961C112.17 104.42 111.223 104.227 109.773 104.158C109.081 104.158 108.486 103.598 108.35 102.871C108.247 102.339 107.978 101.863 107.589 101.522C107.2 101.181 106.715 100.996 106.216 101H102.784C101.747 101 100.853 101.784 100.65 102.871C100.514 103.598 99.9188 104.158 99.2269 104.158C97.7779 104.227 96.8308 104.421 96.0737 104.961C95.5661 105.324 95.129 105.792 94.7875 106.338C94 107.597 94 109.349 94 112.855C94 116.361 94 118.112 94.7865 119.372C95.1266 119.916 95.5634 120.384 96.0737 120.749C97.2508 121.59 98.8898 121.59 102.167 121.59Z" fill="#CCCCCC"/>
<path d="M110.334 108.174C110.22 108.173 110.107 108.196 110.001 108.243C109.896 108.289 109.799 108.358 109.718 108.445C109.637 108.532 109.572 108.635 109.528 108.75C109.483 108.864 109.46 108.987 109.459 109.111C109.459 109.628 109.851 110.046 110.334 110.046H111.5C111.983 110.046 112.376 109.627 112.376 109.111C112.375 108.987 112.352 108.864 112.307 108.749C112.262 108.635 112.198 108.532 112.116 108.445C112.035 108.358 111.939 108.289 111.833 108.242C111.727 108.196 111.614 108.173 111.5 108.174H110.334Z" fill="#CCCCCC"/>
<path fill-rule="evenodd" clip-rule="evenodd" d="M104.5 108.174C102.085 108.174 100.126 110.269 100.126 112.853C100.126 115.437 102.084 117.533 104.501 117.533C106.916 117.533 108.876 115.439 108.876 112.855C108.876 110.271 106.917 108.174 104.501 108.174M104.501 110.046C103.052 110.046 101.876 111.303 101.876 112.853C101.876 114.403 103.052 115.662 104.501 115.662C105.951 115.662 107.126 114.404 107.126 112.853C107.126 111.303 105.951 110.046 104.501 110.046Z" fill="#CCCCCC"/>
</g>
<defs>
<clipPath id="clip0_188_1266">
<rect width="128" height="128" fill="white"/>
</clipPath>
</defs>
</svg>
