<svg width="102" height="102" viewBox="0 0 102 102" fill="none" xmlns="http://www.w3.org/2000/svg">
<circle cx="51" cy="51" r="51" fill="#F6F8FA"/>
<path d="M57.0987 26.5102C54.4529 21.7245 47.5534 21.7245 44.9076 26.5102L21.5051 68.7847C18.9454 73.4115 22.3002 79.0782 27.602 79.0782H74.3967C79.696 79.0782 83.0558 73.4115 80.4935 68.7847L57.0987 26.5102ZM53.5338 66.4625C53.5338 67.1319 53.267 67.774 52.7922 68.2473C52.3174 68.7207 51.6734 68.9866 51.0019 68.9866C50.3304 68.9866 49.6864 68.7207 49.2115 68.2473C48.7367 67.774 48.47 67.1319 48.47 66.4625C48.47 65.793 48.7367 65.151 49.2115 64.6777C49.6864 64.2043 50.3304 63.9383 51.0019 63.9383C51.6734 63.9383 52.3174 64.2043 52.7922 64.6777C53.267 65.151 53.5338 65.793 53.5338 66.4625ZM49.1029 58.259V41.852C49.1029 41.3499 49.303 40.8684 49.6591 40.5134C50.0152 40.1584 50.4982 39.9589 51.0019 39.9589C51.5055 39.9589 51.9885 40.1584 52.3446 40.5134C52.7007 40.8684 52.9008 41.3499 52.9008 41.852V58.259C52.9008 58.7611 52.7007 59.2426 52.3446 59.5976C51.9885 59.9527 51.5055 60.1521 51.0019 60.1521C50.4982 60.1521 50.0152 59.9527 49.6591 59.5976C49.303 59.2426 49.1029 58.7611 49.1029 58.259Z" fill="#FF7777"/>
</svg>
