<svg width="50" height="50" viewBox="0 0 50 50" fill="none" xmlns="http://www.w3.org/2000/svg">
<path opacity="0.5" d="M19.445 49.0229H30.555C38.3575 49.0229 42.26 49.0229 45.0625 47.0211C46.2721 46.1581 47.3136 45.0439 48.1275 43.742C50 40.7462 50 36.5711 50 28.2263C50 19.8816 50 15.7065 48.1275 12.7106C47.3136 11.4088 46.2721 10.2945 45.0625 9.43156C43.2625 8.14335 41.0075 7.68308 37.555 7.51967C35.9075 7.51967 34.49 6.18516 34.1675 4.45575C33.921 3.18897 33.2807 2.05373 32.3546 1.2419C31.4286 0.430072 30.2736 -0.00856485 29.085 0.000126726H20.915C18.445 0.000126726 16.3175 1.86571 15.8325 4.45575C15.51 6.18516 14.0925 7.51967 12.445 7.51967C8.995 7.68308 6.74 8.14607 4.9375 9.43156C3.72884 10.2948 2.68818 11.4091 1.875 12.7106C0 15.7065 0 19.8789 0 28.2263C0 36.5738 1.49012e-07 40.7435 1.8725 43.742C2.6825 45.0384 3.7225 46.1523 4.9375 47.0211C7.74 49.0229 11.6425 49.0229 19.445 49.0229Z" fill="#CCCCCC"/>
<path d="M38.8906 17.0819C38.6194 17.0794 38.3504 17.1351 38.099 17.2458C37.8476 17.3566 37.6187 17.5202 37.4253 17.7273C37.2319 17.9344 37.0779 18.181 36.972 18.453C36.8661 18.725 36.8104 19.017 36.8081 19.3124C36.8081 20.5434 37.7406 21.5402 38.8906 21.5402H41.6681C42.8181 21.5402 43.7531 20.5407 43.7531 19.3124C43.7508 19.0168 43.6951 18.7245 43.589 18.4523C43.4829 18.1802 43.3287 17.9335 43.135 17.7263C42.9414 17.5191 42.7122 17.3556 42.4605 17.245C42.2087 17.1345 41.9395 17.079 41.6681 17.0819H38.8906Z" fill="#CCCCCC"/>
<path fill-rule="evenodd" clip-rule="evenodd" d="M25 17.0818C19.25 17.0818 14.585 22.0712 14.585 28.2236C14.585 34.3759 19.2475 39.3653 25.0025 39.3653C30.7525 39.3653 35.4175 34.3786 35.4175 28.2263C35.4175 22.0739 30.755 17.0818 25.0025 17.0818M25.0025 21.5401C21.5525 21.5401 18.7525 24.5332 18.7525 28.2236C18.7525 31.9139 21.5525 34.9097 25.0025 34.9097C28.455 34.9097 31.2525 31.9166 31.2525 28.2236C31.2525 24.5332 28.455 21.5401 25.0025 21.5401Z" fill="#CCCCCC"/>
</svg>
