<svg width="23" height="21" viewBox="0 0 23 21" fill="none" xmlns="http://www.w3.org/2000/svg">
<path d="M19.5412 18.9043L16.1744 17.7815L15.5851 18.0761C14.2314 18.7514 12.7264 19.1113 11.1481 19.1113C5.87658 19.1113 1.59246 14.961 1.59246 10.352C1.59246 5.74295 5.87658 1.59261 11.1481 1.59261C16.4197 1.59261 20.7038 5.74295 20.7038 10.352C20.7038 12.072 20.0827 13.8175 18.9408 15.3098L18.3913 16.0264L19.5428 18.9027L19.5412 18.9043ZM20.6671 20.9587C20.8113 21.007 20.9662 21.0131 21.1136 20.9761C21.2611 20.9392 21.3949 20.8608 21.4992 20.7503C21.6035 20.6398 21.674 20.5017 21.7024 20.3524C21.7308 20.203 21.7159 20.0487 21.6593 19.9076L20.2069 16.2765C21.5319 14.5405 22.2964 12.4638 22.2964 10.352C22.2964 5.07406 17.5186 0 11.1481 0C4.77768 0 -0.000152588 5.07406 -0.000152588 10.352C-0.000152588 15.6299 4.77768 20.7039 11.1481 20.7039C12.9348 20.709 14.6979 20.2967 16.297 19.4999L20.6671 20.9572V20.9587Z" fill="#CCCCCC"/>
<path d="M11.1483 11.6261C11.3156 11.6261 11.4813 11.5931 11.6358 11.5291C11.7904 11.465 11.9309 11.3712 12.0492 11.2529C12.1675 11.1346 12.2614 10.9941 12.3254 10.8395C12.3894 10.685 12.4224 10.5193 12.4224 10.352C12.4224 10.1847 12.3894 10.019 12.3254 9.8644C12.2614 9.70982 12.1675 9.56936 12.0492 9.45105C11.9309 9.33274 11.7904 9.23889 11.6358 9.17487C11.4813 9.11084 11.3156 9.07788 11.1483 9.07788C10.8104 9.07788 10.4863 9.21212 10.2474 9.45105C10.0084 9.68999 9.87419 10.0141 9.87419 10.352C9.87419 10.6899 10.0084 11.0139 10.2474 11.2529C10.4863 11.4918 10.8104 11.6261 11.1483 11.6261ZM6.37045 11.6261C6.53776 11.6261 6.70344 11.5931 6.85802 11.5291C7.0126 11.465 7.15305 11.3712 7.27136 11.2529C7.38967 11.1346 7.48352 10.9941 7.54755 10.8395C7.61158 10.685 7.64454 10.5193 7.64454 10.352C7.64454 10.1847 7.61158 10.019 7.54755 9.8644C7.48352 9.70982 7.38967 9.56936 7.27136 9.45105C7.15305 9.33274 7.0126 9.23889 6.85802 9.17487C6.70344 9.11084 6.53776 9.07788 6.37045 9.07788C6.03254 9.07788 5.70847 9.21212 5.46953 9.45105C5.23059 9.68999 5.09636 10.0141 5.09636 10.352C5.09636 10.6899 5.23059 11.0139 5.46953 11.2529C5.70847 11.4918 6.03254 11.6261 6.37045 11.6261ZM15.9261 11.6261C16.0934 11.6261 16.2591 11.5931 16.4137 11.5291C16.5683 11.465 16.7087 11.3712 16.827 11.2529C16.9453 11.1346 17.0392 10.9941 17.1032 10.8395C17.1672 10.685 17.2002 10.5193 17.2002 10.352C17.2002 10.1847 17.1672 10.019 17.1032 9.8644C17.0392 9.70982 16.9453 9.56936 16.827 9.45105C16.7087 9.33274 16.5683 9.23889 16.4137 9.17487C16.2591 9.11084 16.0934 9.07788 15.9261 9.07788C15.5882 9.07788 15.2641 9.21212 15.0252 9.45105C14.7863 9.68999 14.652 10.0141 14.652 10.352C14.652 10.6899 14.7863 11.0139 15.0252 11.2529C15.2641 11.4918 15.5882 11.6261 15.9261 11.6261Z" fill="#CCCCCC"/>
</svg>
