<svg width="25" height="22" viewBox="0 0 25 22" fill="none" xmlns="http://www.w3.org/2000/svg">
<path d="M24.4463 0.503977C24.2708 0.349284 24.0625 0.226556 23.8331 0.142819C23.6037 0.0590823 23.3578 0.0159799 23.1094 0.0159799C22.8611 0.0159799 22.6152 0.0590823 22.3858 0.142819C22.1564 0.226556 21.948 0.349284 21.7726 0.503977L12.5 8.64716L3.22743 0.48729C3.05187 0.3328 2.84345 0.210252 2.61408 0.126642C2.3847 0.0430327 2.13886 1.62782e-09 1.89058 0C1.64231 -1.62782e-09 1.39646 0.0430327 1.16709 0.126642C0.937711 0.210252 0.729295 0.3328 0.553738 0.48729C0.378181 0.64178 0.238922 0.825186 0.143912 1.02704C0.0489009 1.22889 -1.84979e-09 1.44523 0 1.66371C1.84979e-09 1.88219 0.0489008 2.09854 0.143912 2.30039C0.238922 2.50224 0.378181 2.68565 0.553738 2.84014L9.82631 11L0.553738 19.1599C0.378181 19.3144 0.238922 19.4978 0.143912 19.6996C0.0489009 19.9015 0 20.1178 0 20.3363C0 20.5548 0.0489009 20.7711 0.143912 20.973C0.238922 21.1748 0.378181 21.3582 0.553738 21.5127C0.729295 21.6672 0.937711 21.7897 1.16709 21.8734C1.39646 21.957 1.64231 22 1.89058 22C2.13886 22 2.3847 21.957 2.61408 21.8734C2.84345 21.7897 3.05187 21.6672 3.22743 21.5127L12.5 13.3528L21.7726 21.5127C21.9481 21.6672 22.1565 21.7897 22.3859 21.8734C22.6153 21.957 22.8611 22 23.1094 22C23.3577 22 23.6035 21.957 23.8329 21.8734C24.0623 21.7897 24.2707 21.6672 24.4463 21.5127C24.6218 21.3582 24.7611 21.1748 24.8561 20.973C24.9511 20.7711 25 20.5548 25 20.3363C25 20.1178 24.9511 19.9015 24.8561 19.6996C24.7611 19.4978 24.6218 19.3144 24.4463 19.1599L15.1737 11L24.4463 2.84014C25.1668 2.20604 25.1668 1.13808 24.4463 0.503977Z" fill="#2F3438"/>
</svg>
