<svg width="40" height="40" viewBox="0 0 40 40" fill="none" xmlns="http://www.w3.org/2000/svg">
<g id="Group 12">
<path id="Vector" d="M20.0196 10C20.0196 12.28 22.0603 14.1261 24.5801 14.1261H26.4395V15.7544C26.4395 18.0343 28.48 19.8805 31 19.8805V10.7873C30.9999 10.5786 30.9082 10.3784 30.7451 10.2308C30.582 10.0832 30.3607 10.0002 30.13 10H20.0196ZM15.0098 14.5598C15.0098 16.8395 17.0497 18.6859 19.5694 18.6859H21.4297V20.3141C21.4297 22.5941 23.4702 24.4402 25.9902 24.4402V15.3471C25.9898 15.1384 25.8981 14.9384 25.735 14.7908C25.5719 14.6433 25.3508 14.5603 25.1202 14.56L15.0098 14.5598ZM10 19.1195C10 21.3995 12.0396 23.2456 14.5596 23.2456H16.4199V24.8739C16.4199 27.1546 18.4606 29 20.9804 29V19.9076C20.9801 19.6989 20.8884 19.4987 20.7254 19.3511C20.5623 19.2034 20.3411 19.1203 20.1104 19.1199H10V19.1195Z" fill="#3A4F39"/>
</g>
</svg>
