<svg width="23" height="23" viewBox="0 0 23 23" fill="none" xmlns="http://www.w3.org/2000/svg">
<g clip-path="url(#clip0_213_167)">
<path d="M0 11.5C0 8.45001 1.2116 5.52494 3.36827 3.36827C5.52494 1.2116 8.45001 0 11.5 0C14.55 0 17.4751 1.2116 19.6317 3.36827C21.7884 5.52494 23 8.45001 23 11.5C23 14.55 21.7884 17.4751 19.6317 19.6317C17.4751 21.7884 14.55 23 11.5 23C8.45001 23 5.52494 21.7884 3.36827 19.6317C1.2116 17.4751 0 14.55 0 11.5ZM15.8125 8.625C15.8125 8.24375 15.661 7.87812 15.3915 7.60853C15.1219 7.33895 14.7562 7.1875 14.375 7.1875C13.9938 7.1875 13.6281 7.33895 13.3585 7.60853C13.089 7.87812 12.9375 8.24375 12.9375 8.625C12.9375 9.00625 13.089 9.37188 13.3585 9.64147C13.6281 9.91105 13.9938 10.0625 14.375 10.0625C14.7562 10.0625 15.1219 9.91105 15.3915 9.64147C15.661 9.37188 15.8125 9.00625 15.8125 8.625ZM8.99587 12.719C8.74673 12.4379 8.39748 12.2655 8.02284 12.2387C7.6482 12.2119 7.27793 12.3327 6.99128 12.5754C6.70462 12.8181 6.52434 13.1634 6.48901 13.5373C6.45369 13.9113 6.56612 14.2842 6.80225 14.5763L6.80369 14.5791L6.80513 14.5806L6.80944 14.5863L6.8195 14.5978L6.84538 14.6266L6.92156 14.7099C7.2634 15.0567 7.6479 15.3585 8.06581 15.6084C9.1048 16.2238 10.2925 16.543 11.5 16.5312C12.7081 16.5428 13.8964 16.2231 14.9356 15.6069C15.353 15.3575 15.737 15.0561 16.0784 14.7099L16.1546 14.628L16.1805 14.5978L16.1906 14.5863L16.1949 14.5806L16.1978 14.5777C16.4442 14.2868 16.5651 13.9099 16.5336 13.5299C16.5022 13.1499 16.3212 12.798 16.0303 12.5515C15.7394 12.3051 15.3625 12.1842 14.9825 12.2156C14.6025 12.247 14.2506 12.4281 14.0041 12.719L13.9969 12.7262C13.9835 12.7415 13.9538 12.7703 13.9078 12.8124C13.7685 12.9371 13.6173 13.0478 13.4564 13.1431C12.8639 13.4907 12.1869 13.6683 11.5 13.6562C10.8136 13.668 10.1372 13.4904 9.545 13.1431C9.34841 13.0262 9.16648 12.8862 9.00306 12.7262L8.99587 12.719ZM10.0625 8.625C10.0625 8.24375 9.91105 7.87812 9.64147 7.60853C9.37188 7.33895 9.00625 7.1875 8.625 7.1875C8.24375 7.1875 7.87812 7.33895 7.60853 7.60853C7.33895 7.87812 7.1875 8.24375 7.1875 8.625C7.1875 9.00625 7.33895 9.37188 7.60853 9.64147C7.87812 9.91105 8.24375 10.0625 8.625 10.0625C9.00625 10.0625 9.37188 9.91105 9.64147 9.64147C9.91105 9.37188 10.0625 9.00625 10.0625 8.625Z" fill="#C2C8CB"/>
</g>
<defs>
<clipPath id="clip0_213_167">
<rect width="23" height="23" fill="white"/>
</clipPath>
</defs>
</svg>
