<svg width="21" height="21" viewBox="0 0 21 21" fill="none" xmlns="http://www.w3.org/2000/svg">
<path d="M15.9302 5.25H19.3835C19.5924 5.25018 19.7938 5.31933 19.9486 5.44403C20.1034 5.56874 20.2007 5.74013 20.2216 5.925L20.7359 10.5H19.0396L18.618 6.75H15.9302V9C15.9302 9.19891 15.8414 9.38968 15.6833 9.53033C15.5252 9.67098 15.3108 9.75 15.0871 9.75C14.8635 9.75 14.6491 9.67098 14.491 9.53033C14.3329 9.38968 14.2441 9.19891 14.2441 9V6.75H7.49932V9C7.49932 9.19891 7.41049 9.38968 7.25238 9.53033C7.09427 9.67098 6.87983 9.75 6.65623 9.75C6.43262 9.75 6.21818 9.67098 6.06007 9.53033C5.90196 9.38968 5.81313 9.19891 5.81313 9V6.75H3.12367L1.77472 18.75H10.8717V20.25H0.84226C0.724504 20.2499 0.608077 20.2278 0.500482 20.1853C0.392887 20.1427 0.29651 20.0806 0.217559 20.0028C0.138609 19.9251 0.0788365 19.8335 0.0420932 19.734C0.0053499 19.6345 -0.00754957 19.5292 0.00422615 19.425L1.52179 5.925C1.54268 5.74013 1.63996 5.56874 1.79479 5.44403C1.94961 5.31933 2.15096 5.25018 2.35983 5.25H5.81313V4.7265C5.81313 2.1255 8.06588 0 10.8717 0C13.6775 0 15.9302 2.1255 15.9302 4.7265V5.2515V5.25ZM14.2441 5.25V4.7265C14.2441 2.9355 12.7231 1.5 10.8717 1.5C9.02026 1.5 7.49932 2.9355 7.49932 4.7265V5.2515H14.2441V5.25ZM19.5505 16.59L17.6164 14.871V20.25C17.6164 20.4489 17.5276 20.6397 17.3695 20.7803C17.2114 20.921 16.9969 21 16.7733 21C16.5497 21 16.3353 20.921 16.1772 20.7803C16.0191 20.6397 15.9302 20.4489 15.9302 20.25V14.871L13.9979 16.59C13.9201 16.6616 13.8271 16.7188 13.7242 16.7581C13.6213 16.7974 13.5107 16.8181 13.3988 16.8189C13.2868 16.8198 13.1758 16.8008 13.0722 16.7631C12.9686 16.7254 12.8745 16.6697 12.7953 16.5993C12.7161 16.5289 12.6535 16.4451 12.6111 16.353C12.5687 16.2608 12.5474 16.162 12.5484 16.0625C12.5494 15.9629 12.5726 15.8644 12.6168 15.7729C12.661 15.6814 12.7252 15.5987 12.8057 15.5295L16.1781 12.5295C16.3362 12.3889 16.5506 12.3099 16.7742 12.3099C16.9977 12.3099 17.2121 12.3889 17.3702 12.5295L20.7426 15.5295C20.8231 15.5987 20.8874 15.6814 20.9316 15.7729C20.9757 15.8644 20.999 15.9629 21 16.0625C21.0009 16.162 20.9796 16.2608 20.9372 16.353C20.8948 16.4451 20.8322 16.5289 20.7531 16.5993C20.6739 16.6697 20.5798 16.7254 20.4762 16.7631C20.3725 16.8008 20.2615 16.8198 20.1496 16.8189C20.0376 16.8181 19.927 16.7974 19.8241 16.7581C19.7213 16.7188 19.6283 16.6616 19.5505 16.59Z" fill="#C2C8CB"/>
</svg>
