<svg width="42" height="45" viewBox="0 0 42 45" fill="none" xmlns="http://www.w3.org/2000/svg">
<path d="M20.8932 0C32.2866 0 41.5222 9.23558 41.5222 20.629C41.5222 32.0223 32.2866 41.2579 20.8932 41.2579C9.49986 41.2579 0.264282 32.0223 0.264282 20.629C0.264282 9.23558 9.49986 0 20.8932 0ZM20.8932 4.12579C16.5163 4.12579 12.3187 5.86451 9.22374 8.95946C6.12879 12.0544 4.39007 16.252 4.39007 20.629C4.39007 25.0059 6.12879 29.2035 9.22374 32.2985C12.3187 35.3934 16.5163 37.1321 20.8932 37.1321C25.2701 37.1321 29.4678 35.3934 32.5627 32.2985C35.6577 29.2035 37.3964 25.0059 37.3964 20.629C37.3964 16.252 35.6577 12.0544 32.5627 8.95946C29.4678 5.86451 25.2701 4.12579 20.8932 4.12579ZM28.1856 13.1633C28.5559 12.7894 29.0552 12.5712 29.5812 12.5534C30.1072 12.5355 30.6201 12.7194 31.015 13.0673C31.4099 13.4153 31.6568 13.901 31.7053 14.4251C31.7538 14.9491 31.6001 15.4719 31.2758 15.8864L31.1046 16.0803L19.5812 27.6057C19.1879 27.9989 18.6639 28.234 18.1087 28.2663C17.5534 28.2987 17.0057 28.126 16.5694 27.781L16.3714 27.6057L10.6819 21.9162C10.308 21.5458 10.0898 21.0465 10.0719 20.5206C10.0541 19.9946 10.238 19.4816 10.5859 19.0868C10.9339 18.6919 11.4196 18.445 11.9436 18.3965C12.4677 18.348 12.9904 18.5016 13.4049 18.826L13.5988 18.9993L17.9763 23.3747L28.1876 13.1633H28.1856Z" fill="#BDBDC3"/>
</svg>
