<svg width="120" height="120" viewBox="0 0 120 120" fill="none" xmlns="http://www.w3.org/2000/svg">
<rect x="0.09375" width="119.792" height="119.792" rx="29.9481" fill="#1359A0"/>
<g clip-path="url(#clip0_34_8099)">
<path fill-rule="evenodd" clip-rule="evenodd" d="M83.9285 50.1503C81.8965 47.148 79.197 44.6971 76.0582 43.0052C72.9194 41.3132 69.4336 40.4299 65.8959 40.4299C62.3581 40.4299 58.8724 41.3132 55.7336 43.0052C52.5948 44.6971 49.8953 47.148 47.8633 50.1503L47.6523 50.465H52.8717L52.9309 50.3997C54.5948 48.5641 56.6037 47.1012 58.8338 46.1012C61.0639 45.1011 63.468 44.5852 65.8977 44.5852C68.3275 44.5852 70.7316 45.1011 72.9617 46.1012C75.1918 47.1012 77.2007 48.5641 78.8646 50.3997L78.9201 50.465H84.1395L83.9285 50.1503Z" fill="#E60012"/>
<path d="M45.5802 70.4002L45.4839 70.5038C43.8774 72.1962 42.0229 73.0942 40.1128 73.0942C36.1225 73.0942 33.2241 69.9896 33.2241 65.7107C33.2241 61.4318 36.1225 58.3158 40.1128 58.3158C42.0229 58.3158 43.8774 59.2137 45.4839 60.9099L45.5802 61.0136L48.1454 57.7977L48.0788 57.7094C45.9429 55.0961 43.3814 53.8258 40.235 53.8258C37.0886 53.8258 34.1865 54.9272 32.0914 56.8959C29.8297 59.0487 28.634 62.0842 28.634 65.6839C28.634 69.2835 29.8297 72.319 32.0914 74.4718C34.1717 76.4674 37.059 77.5649 40.235 77.5649C43.411 77.5649 45.9429 76.2908 48.0788 73.6775L48.1454 73.593L45.5802 70.4002Z" fill="white"/>
<path d="M55.2706 54.2101H50.7397V77.1548H55.2706V54.2101Z" fill="white"/>
<path d="M73.0348 72.1607C72.0464 72.8523 70.8943 73.2504 69.7033 73.312C68.2227 73.312 67.5749 72.5099 67.5749 70.7255V58.5489H72.1945V54.2279H67.5601V47.0862L63.1181 49.5537V54.2279H59.2832V58.5489H63.1181V71.5007C63.1181 75.0274 65.1355 77.4412 68.1449 77.5026C69.5572 77.5744 70.958 77.2083 72.1686 76.4511L72.213 76.4166L73.305 71.9957L73.0348 72.1607Z" fill="white"/>
<path d="M81.3226 54.2101H76.7881V77.1548H81.3226V54.2101Z" fill="white"/>
<path d="M91.1504 51.3576C91.1504 51.7729 91.0316 52.1789 90.8089 52.5242C90.5863 52.8695 90.2698 53.1385 89.8996 53.2973C89.5294 53.456 89.1221 53.4974 88.7292 53.4161C88.3364 53.3348 87.9756 53.1345 87.6926 52.8405C87.4095 52.5466 87.217 52.1722 87.1393 51.7647C87.0616 51.3573 87.1022 50.9351 87.256 50.5516C87.4098 50.1681 87.6699 49.8405 88.0034 49.6103C88.3369 49.3801 88.7287 49.2577 89.1293 49.2584C89.3964 49.2532 89.6618 49.304 89.9096 49.4077C90.1573 49.5113 90.3823 49.6658 90.571 49.8618C90.7597 50.0579 90.9084 50.2914 91.0079 50.5484C91.1075 50.8054 91.156 51.0807 91.1504 51.3576ZM91.5391 51.3576C91.5398 50.8624 91.3988 50.3781 91.1339 49.966C90.869 49.554 90.4921 49.2327 90.0509 49.0428C89.6098 48.853 89.1242 48.8031 88.6557 48.8995C88.1872 48.996 87.7568 49.2343 87.4191 49.5845C87.0813 49.9346 86.8514 50.3808 86.7584 50.8665C86.6653 51.3522 86.7135 51.8557 86.8966 52.313C87.0797 52.7704 87.3896 53.1611 87.7871 53.4357C88.1845 53.7104 88.6517 53.8566 89.1293 53.8558C89.4474 53.8621 89.7635 53.8017 90.0586 53.6784C90.3537 53.5551 90.6218 53.3713 90.8467 53.138C91.0717 52.9048 91.249 52.6269 91.368 52.321C91.4869 52.015 91.5451 51.6874 91.5391 51.3576ZM90.2287 50.7666C90.2327 50.6516 90.2126 50.5371 90.1699 50.431C90.1272 50.3248 90.0629 50.2294 89.9813 50.1514C89.8997 50.0735 89.8029 50.0147 89.6974 49.9791C89.5918 49.9435 89.4801 49.932 89.3699 49.9454H88.215V52.67H88.6592V51.6185H89.1664L89.6809 52.67H90.2102L89.6698 51.5686C89.8392 51.5248 89.9883 51.4202 90.0906 51.2735C90.1928 51.1267 90.2418 50.9471 90.2287 50.7666ZM89.7771 50.7666C89.7771 51.039 89.5957 51.1503 89.3551 51.1503H88.6592V50.3828H89.3551C89.4079 50.3751 89.4617 50.3793 89.5127 50.3951C89.5638 50.4108 89.611 50.4379 89.6511 50.4743C89.6911 50.5108 89.7231 50.5557 89.7449 50.6062C89.7667 50.6566 89.7776 50.7113 89.7771 50.7666Z" fill="white"/>
</g>
<defs>
<clipPath id="clip0_34_8099">
<rect width="62.8909" height="37.1628" fill="white" transform="translate(28.6482 40.4299)"/>
</clipPath>
</defs>
</svg>
