<svg width="121" height="120" viewBox="0 0 121 120" fill="none" xmlns="http://www.w3.org/2000/svg">
<rect x="0.900146" width="119.792" height="119.792" rx="29.9481" fill="#7C7266"/>
<g clip-path="url(#clip0_34_8072)">
<path d="M89.7806 60.44L89.2596 60.1235C87.4912 58.4113 85.0259 57.6676 81.7432 57.8511C79.0077 58.0157 76.8355 59.0696 75.1779 60.0666C75.1779 60.0412 75.1779 60.0159 75.1779 59.9906C75.1966 59.1166 75.2607 58.2441 75.37 57.3764C75.4826 56.4941 75.5479 55.6067 75.5654 54.7179C75.5952 53.8941 75.4545 53.073 75.1518 52.3031C75.1147 52.2128 75.0497 52.1359 74.9656 52.0832C74.8816 52.0304 74.7828 52.0044 74.6828 52.0087C73.797 52.0277 72.0775 52.6164 71.6509 52.974L71.4229 53.4582C71.4229 54.4077 71.195 57.0694 70.9768 57.3922L70.8595 57.7087C70.4893 61.0321 70.4773 64.384 70.8237 67.7098C70.8628 67.9946 71.4295 68.4282 71.8691 68.5833C72.3088 68.7384 73.8524 68.3649 74.7187 68.0453L75.0443 67.9978C75.1101 67.9889 75.1733 67.9674 75.2304 67.9344C75.2875 67.9015 75.3372 67.8578 75.3766 67.8059C75.4161 67.754 75.4444 67.6949 75.4601 67.6323C75.4757 67.5696 75.4783 67.5045 75.4677 67.4408L75.484 66.6147C76.1125 64.1398 78.6494 61.1933 81.6455 60.747C83.3423 60.4875 84.6807 60.9053 85.7359 62.013C85.8792 62.2124 86.1886 63.991 85.0846 66.0387C84.2509 67.5547 82.59 68.827 80.4015 69.6277C78.3303 70.3905 76.0506 70.7006 73.2369 70.6025L70.5892 68.8713C68.3617 67.349 65.5903 65.4532 63.0729 64.5259C62.6333 64.3645 61.8387 63.7252 61.3664 63.3422L61.1059 63.1365C59.6567 62.0035 56.8983 60.2185 54.6806 58.7848L53.4854 58.0062V57.7625C53.5472 57.696 54.9378 56.8858 54.9378 56.8858C56.8918 55.7781 57.7874 55.2337 57.9795 54.9521C57.9405 54.9964 58.2401 54.8033 58.2401 54.8033L63.0697 52.148C67.7039 49.6699 72.9601 46.8594 75.7217 44.0838L75.8552 43.6597L75.9139 43.2831C76.0953 42.7724 76.1101 42.2198 75.9562 41.7006C75.9319 41.6141 75.8845 41.5355 75.8187 41.4726C75.7529 41.4098 75.6711 41.3651 75.5817 41.343C73.429 41.1373 70.6479 42.3906 68.1175 44.6946C67.6525 45.1131 67.1283 45.4648 66.5608 45.739L66.1732 45.9479C63.3856 47.4892 57.1002 51.2776 53.798 53.3253C54.1103 49.1629 54.6703 45.0216 55.4752 40.9221L55.384 40.4347L55.0583 39.8017L54.8011 39.3618L54.7262 39.3428C54.4817 39.2247 54.2153 39.1558 53.9428 39.14C53.6703 39.1242 53.3973 39.162 53.1402 39.251L52.4888 39.482L51.6161 39.7985C51.5316 39.8145 51.4532 39.8524 51.389 39.9081C51.3248 39.9638 51.2772 40.0353 51.2513 40.115C49.6816 43.8053 48.3724 49.8819 48.0793 54.7305C45.6628 53.2571 43.162 51.9183 40.5891 50.7206L40.5467 50.6984L40.3741 50.6636C39.8661 50.5972 39.2408 50.2332 38.6383 49.8787L37.4464 49.1287L35.6325 47.983C35.652 47.983 35.1537 47.8785 35.1537 47.8785C34.3689 48.0083 32.8741 48.9926 32.4214 49.6572C32.3649 49.743 32.3365 49.8434 32.34 49.9452C32.3477 50.0874 32.3751 50.2279 32.4214 50.363L32.5028 50.7238L32.5875 50.9421C33.4603 51.8125 35.665 53.2652 37.8307 54.3982L40.3383 55.6895L44.1714 57.7372C44.1714 57.753 44.8227 58.2404 44.8227 58.2404L45.2754 58.4936L45.3535 58.5411L38.3843 63.0732L34.7271 65.4374C34.042 65.8044 33.3364 66.1341 32.6136 66.4248C31.9157 66.6556 31.3286 67.1261 30.9624 67.7478L30.8647 67.9535L30.9657 68.0896L31.2425 68.2953L31.6235 68.5358L32.0241 68.8049L32.4084 68.8618C33.0597 68.8871 34.0107 68.5295 35.7986 67.7699C37.4269 67.061 41.8982 64.4499 43.8034 63.3391L44.6175 62.8643C44.9432 62.8896 45.3242 62.6143 45.6532 62.3706C46.1915 61.9803 46.7686 61.6431 47.3759 61.3642C47.3759 61.3642 47.682 61.2028 47.9491 61.0477C47.9491 61.1331 47.9491 61.2629 47.9491 61.2629C48.0338 66.9281 48.3724 71.0456 49.0075 74.22V74.2801L49.0694 74.4067C49.395 74.8561 49.7402 76.1981 50.0464 77.3817L50.7726 79.7459C50.7726 79.7744 50.981 79.9706 50.981 79.9706C51.3946 80.2396 52.6549 80.7112 53.5017 80.6036L53.7101 80.5783L53.8436 80.2903C53.9129 79.9335 53.9457 79.5709 53.9413 79.2079C53.9413 78.7743 53.9087 78.2964 53.8664 77.7141L53.811 76.8595C53.544 72.9192 53.29 67.2034 53.29 63.4055C53.29 63.3011 53.29 63.2061 53.29 63.089C53.9771 63.5131 57.0058 65.3646 57.0058 65.3646C62.1545 68.6086 69.9314 73.5142 74.6307 74.8118C74.7478 74.8476 74.8726 74.8524 74.9923 74.8257C75.1119 74.799 75.2221 74.7418 75.3114 74.6599L76.0376 74.2073L76.1679 74.1535C76.4414 74.0301 76.6238 73.587 76.6531 73.106C80.6164 72.9161 86.143 71.4317 89.0967 67.8206C90.1574 66.5127 90.7415 64.8998 90.7576 63.2346C90.7576 62.0351 90.4124 60.9939 89.7806 60.4242" fill="#F8B500"/>
</g>
<defs>
<clipPath id="clip0_34_8072">
<rect width="59.8961" height="41.4666" fill="white" transform="translate(30.8481 39.1628)"/>
</clipPath>
</defs>
</svg>
