<svg width="121" height="120" viewBox="0 0 121 120" fill="none" xmlns="http://www.w3.org/2000/svg">
<rect x="0.376709" width="119.792" height="119.792" rx="29.9481" fill="#0055A2"/>
<path d="M46.1117 33.6094C45.3712 33.977 44.7112 34.4884 44.1703 35.1136C43.6294 35.7389 43.2183 36.4656 42.9611 37.2513L32.8927 67.4928C32.3658 69.0768 32.4897 70.8053 33.2371 72.298C33.9845 73.7907 35.2942 74.9254 36.8781 75.4525L69.8802 86.5328C71.4636 87.0543 73.1889 86.9278 74.6793 86.181C76.1697 85.4342 77.3038 84.1278 77.834 82.5474L87.8981 52.3059C88.423 50.7221 88.2989 48.9949 87.5531 47.5024C86.8072 46.0099 85.5004 44.8738 83.9187 44.3427L50.9166 33.2719C50.1333 33.0069 49.3051 32.9003 48.4803 32.9582C47.6554 33.0162 46.8503 33.2375 46.1117 33.6094Z" fill="white"/>
<path d="M54.9014 36.918C60.6752 39.0584 64.89 45.2256 64.4803 51.9494C64.3353 54.4556 63.5648 56.8856 62.2393 59.0175C60.4216 56.982 58.1474 55.406 55.6032 54.4188L54.1284 53.8399V67.8663L55.6247 67.2857C58.1642 66.2889 60.4309 64.7037 62.2385 62.6603C64.0077 65.4964 64.7901 68.8377 64.4639 72.1645C64.1377 75.4912 62.7212 78.6169 60.4347 81.0553L60.4493 81.0441L60.4347 81.0613L37.5363 73.4039C36.499 73.0626 35.6389 72.3247 35.1438 71.3514C34.6488 70.378 34.559 69.2483 34.8942 68.209L44.9884 37.947C45.3185 36.9202 46.0429 36.0665 47.0022 35.5736C47.9615 35.0808 49.0773 34.989 50.1043 35.3186L50.1369 35.3298L54.9014 36.918Z" fill="#0092D8"/>
<path d="M48.9941 68.7138H46.7283V53.0013H48.9941V68.7138Z" fill="white"/>
<path d="M60.917 60.8376C59.6416 59.3169 58.0777 58.0637 56.3157 57.1502V64.5371C58.0766 63.6167 59.6399 62.3598 60.917 60.8376Z" fill="#E43D30"/>
<path d="M83.1906 46.355L62.1638 39.3384C64.8076 42.2216 66.3973 45.915 66.674 49.817C66.9507 53.7191 65.898 57.5998 63.6876 60.8273C65.8441 63.9491 66.9146 67.6932 66.7342 71.4832C66.5539 75.2731 65.1327 78.8987 62.6895 81.8016L70.5831 84.4377C71.0927 84.6051 71.6302 84.6705 72.165 84.6301C72.6999 84.5896 73.2215 84.4442 73.7001 84.2021C74.1787 83.96 74.6049 83.626 74.9543 83.2191C75.3038 82.8123 75.5697 82.3405 75.7367 81.8309V81.8197L85.831 51.5593C86.1663 50.519 86.0769 49.3883 85.5824 48.4135C85.0878 47.4387 84.2282 46.6989 83.1906 46.355ZM77.6075 68.6676H74.773L68.9322 60.8273L74.8692 52.968H77.7467L71.7891 60.8273L77.6075 68.6676Z" fill="#004B9D"/>
</svg>
