<svg width="120" height="120" viewBox="0 0 120 120" fill="none" xmlns="http://www.w3.org/2000/svg">
<rect y="0.103867" width="119.792" height="119.792" rx="29.9481" fill="#00C4A6"/>
<path d="M34.7796 54.3495H20.9636V79.4592H34.7796V54.3495Z" fill="white"/>
<mask id="mask0_34_7762" style="mask-type:luminance" maskUnits="userSpaceOnUse" x="34" y="40" width="40" height="40">
<path d="M34.7795 54.3494C41.4368 54.3567 47.8194 57.0045 52.5268 61.7119C57.2342 66.4193 59.882 72.8019 59.8893 79.4592H73.7052C73.7052 74.3474 72.6984 69.2856 70.7422 64.5629C68.786 59.8403 65.9187 55.5491 62.3042 51.9345C58.6896 48.3199 54.3984 45.4527 49.6758 43.4965C44.9531 41.5403 39.8913 40.5334 34.7795 40.5334V54.3494Z" fill="white"/>
</mask>
<g mask="url(#mask0_34_7762)">
<path d="M73.7052 40.5365H34.7795V79.4622H73.7052V40.5365Z" fill="white"/>
</g>
<path d="M98.8285 40.5334V54.3494C92.1713 54.3567 85.7887 57.0045 81.0813 61.7119C76.3739 66.4193 73.7261 72.8019 73.7188 79.4592H59.8892C59.8892 74.3462 60.8965 69.2833 62.8535 64.5598C64.8106 59.8362 67.679 55.5445 71.2951 51.9297C74.9111 48.3149 79.2039 45.448 83.9281 43.4926C88.6524 41.5372 93.7156 40.5317 98.8285 40.5334Z" fill="white"/>
</svg>
