<svg width="121" height="120" viewBox="0 0 121 120" fill="none" xmlns="http://www.w3.org/2000/svg">
<rect x="0.714844" width="119.792" height="119.792" rx="29.9481" fill="#0A1B98"/>
<g clip-path="url(#clip0_34_7954)">
<path d="M81.7317 71.6915C81.5908 69.3009 80.8349 66.9821 79.5323 64.9451L58.4932 33.0467H72.9161C75.2514 33.0467 77.4176 34.3983 78.2695 35.674L90.1969 53.7732C91.1033 55.1511 91.1033 57.4923 90.1969 58.8877L81.7317 71.6915Z" fill="white"/>
<path d="M58.7651 79.3778L71.9161 59.3052C72.2527 58.7602 72.4879 58.1625 72.611 57.5391L78.0883 65.8472C79.6563 68.2118 80.6865 72.7862 79.6774 74.8034L78.3904 76.7534C77.3028 78.4232 75.3149 79.3808 72.9312 79.3808L58.7651 79.3778Z" fill="white"/>
<path d="M49.1098 86.9561C46.7745 86.9561 44.6113 85.6045 43.7594 84.3288L31.8289 66.2296C30.9226 64.8546 30.9226 62.5134 31.8289 61.118L40.2881 48.3143C40.4337 50.7008 41.1905 53.0149 42.4905 55.0489L63.5327 86.9561H49.1098Z" fill="white"/>
<path d="M43.9377 54.144C42.3727 51.7794 41.3395 47.202 42.3485 45.1878L43.6386 43.2377C44.7231 41.5679 46.7141 40.6104 49.0947 40.6104H63.2608L50.1129 60.683C49.778 61.2239 49.542 61.8164 49.415 62.4346L43.9377 54.144Z" fill="white"/>
</g>
<defs>
<clipPath id="clip0_34_7954">
<rect width="62.8909" height="53.9065" fill="white" transform="translate(29.2693 33.0467)"/>
</clipPath>
</defs>
</svg>
