<svg width="121" height="120" viewBox="0 0 121 120" fill="none" xmlns="http://www.w3.org/2000/svg">
<rect x="0.848145" width="119.792" height="119.792" rx="29.9481" fill="#00A84D"/>
<g clip-path="url(#clip0_34_7961)">
<path d="M71.9373 33.0468L61.188 38.3871L50.454 33.0468L61.188 53.2589L71.9373 33.0468Z" fill="#FDB913"/>
<path d="M75.6951 48.6625L75.5281 48.5273L83.1953 45.3426V34.7145L69.9181 40.2952C69.9181 40.2952 62.6988 53.815 62.5394 54.123C65.3775 54.4544 67.9804 55.8463 69.8155 58.0139C71.6506 60.1815 72.5793 62.9609 72.4115 65.7836C72.2437 68.6064 70.9922 71.259 68.913 73.1988C66.8337 75.1386 64.0839 76.2191 61.2261 76.2191C58.3683 76.2191 55.6185 75.1386 53.5392 73.1988C51.46 71.259 50.2085 68.6064 50.0407 65.7836C49.8729 62.9609 50.8016 60.1815 52.6367 58.0139C54.4718 55.8463 57.0747 54.4544 59.9128 54.123L52.5493 40.2952L39.2038 34.7145V45.3802L46.8634 48.5648L46.6964 48.7C43.3139 51.6204 40.9128 55.4927 39.8139 59.7994C38.7151 64.106 38.9708 68.6419 40.5469 72.801C42.1231 76.96 44.9446 80.544 48.6344 83.0741C52.3242 85.6041 56.7065 86.9597 61.1957 86.9597C65.685 86.9597 70.0673 85.6041 73.7571 83.0741C77.4469 80.544 80.2684 76.96 81.8445 72.801C83.4207 68.6419 83.6764 64.106 82.5775 59.7994C81.4787 55.4927 79.0776 51.6204 75.6951 48.7V48.6625Z" fill="#FDB913"/>
</g>
<defs>
<clipPath id="clip0_34_7961">
<rect width="44.1053" height="53.9065" fill="white" transform="translate(39.1357 33.0468)"/>
</clipPath>
</defs>
</svg>
