<svg width="120" height="120" viewBox="0 0 120 120" fill="none" xmlns="http://www.w3.org/2000/svg">
<rect x="0.0172119" width="119.792" height="119.792" rx="29.9481" fill="#0473EA"/>
<path d="M71.8544 42.3306C69.6787 42.3306 62.4197 47.6653 62.4197 47.6653C62.4197 47.6653 69.6787 53.0019 71.8544 53.0019C74.8868 53.0019 77.4146 50.951 77.4146 47.6653C77.4146 44.3796 74.8868 42.3306 71.8544 42.3306Z" fill="#38D200"/>
<path d="M47.173 89.8442C49.3486 89.8442 56.6077 84.5094 56.6077 84.5094C56.6077 84.5094 49.3551 79.1729 47.173 79.1729C44.1405 79.1729 41.6136 81.2238 41.6136 84.5094C41.6136 87.7951 44.1452 89.8442 47.173 89.8442Z" fill="white"/>
<path d="M73.7496 60.2682L54.9597 47.777L65.8177 40.1732C68.3252 38.4172 69.1043 34.9503 67.3889 32.4096C66.5672 31.1853 65.2928 30.3375 63.8461 30.0528C62.3993 29.768 60.8987 30.0695 59.6743 30.8911L59.5874 30.9502L46.6147 40.1196C45.3902 40.9847 44.395 42.1352 43.7153 43.4715C43.0356 44.8079 42.6919 46.2897 42.7139 47.7888C42.7359 49.2879 43.123 50.7591 43.8417 52.0748C44.5604 53.3906 45.589 54.5114 46.8384 55.3401L76.2053 74.8038C79.5446 69.6613 78.8976 63.6084 73.7496 60.2682Z" fill="white"/>
<path d="M43.7279 58.5798L76.1125 79.4002C77.3499 80.1973 78.2202 81.4531 78.5321 82.8915C78.8441 84.3299 78.5722 85.8334 77.7761 87.0715C76.9791 88.3088 75.7233 89.1791 74.2849 89.4911C72.8464 89.803 71.343 89.5311 70.1049 88.7351L47.0635 73.925C44.5872 72.3323 42.8447 69.8214 42.2192 66.9444C41.5937 64.0673 42.1364 61.0596 43.7279 58.5825V58.5798Z" fill="#38D200"/>
</svg>
