<svg width="120" height="120" viewBox="0 0 120 120" fill="none" xmlns="http://www.w3.org/2000/svg">
<rect width="119.792" height="119.792" rx="29.9481" fill="#0064FF"/>
<path d="M63.1567 44.3631L65.6408 32.4709C65.6687 32.3325 65.6623 32.1892 65.6222 32.0539C65.5822 31.9187 65.5097 31.7956 65.4112 31.6957C65.3128 31.5958 65.1915 31.5223 65.0581 31.4816C64.9248 31.441 64.7836 31.4345 64.6472 31.4628C60.8284 32.164 57.1024 33.3108 53.5432 34.8801C36.7973 42.082 26.6561 56.1926 30.9225 66.4246C34.1364 74.0737 44.5415 77.3372 56.6391 75.4377L54.1494 87.3214C54.1216 87.4598 54.1279 87.603 54.168 87.7383C54.2081 87.8736 54.2806 87.9967 54.379 88.0966C54.4775 88.1965 54.5988 88.27 54.7321 88.3106C54.8655 88.3513 55.0067 88.3578 55.1431 88.3295C58.9621 87.6255 62.6888 86.4789 66.2499 84.9122C83.0238 77.7045 93.1342 63.5911 88.8677 53.3648C85.6595 45.7271 75.2544 42.4665 63.1567 44.3631Z" fill="white"/>
</svg>
